<svg width="15" height="27" viewBox="0 0 15 27" fill="none" xmlns="http://www.w3.org/2000/svg">
<path d="M11.77 25.5645L0.592408 14.4201C0.459735 14.2874 0.365539 14.1437 0.309816 13.9889C0.254094 13.8341 0.226675 13.6683 0.22756 13.4914C0.22756 13.3145 0.254978 13.1486 0.309816 12.9938C0.364654 12.8391 0.458851 12.6953 0.592408 12.5627L11.77 1.38504C12.0796 1.07547 12.4666 0.920685 12.9309 0.920685C13.3953 0.920685 13.7933 1.08652 14.125 1.41821C14.4566 1.74989 14.6225 2.13685 14.6225 2.57909C14.6225 3.02133 14.4566 3.40829 14.125 3.73997L4.37356 13.4914L14.125 23.2428C14.4345 23.5523 14.5893 23.934 14.5893 24.3877C14.5893 24.8415 14.4235 25.2337 14.0918 25.5645C13.7601 25.8962 13.3732 26.062 12.9309 26.062C12.4887 26.062 12.1017 25.8962 11.77 25.5645Z" fill="#262133"/>
</svg>
