<svg width="38" height="38" viewBox="0 0 38 38" fill="none" xmlns="http://www.w3.org/2000/svg">
<path d="M30.875 23.75H23.75V21.375H30.875V23.75ZM35.625 33.25H28.5V30.875H35.625V33.25ZM33.25 28.5H26.125V26.125H33.25V28.5Z" fill="black"/>
<path d="M20.1911 23.75C20.1827 22.748 19.9155 21.7652 19.4153 20.8969C18.9151 20.0287 18.1989 19.3044 17.3363 18.7946L26.125 3.5625L24.0707 2.375L15.073 17.9621C13.9687 17.7154 12.8202 17.7496 11.7326 18.0614C10.6449 18.3732 9.65276 18.9527 8.8469 19.7469C4.4009 24.035 4.74528 34.0599 4.7619 34.485C4.77418 34.7916 4.90469 35.0816 5.12607 35.2941C5.34745 35.5067 5.64252 35.6252 5.9494 35.625H23.7512C24.0005 35.625 24.2434 35.5466 24.4456 35.4009C24.6477 35.2551 24.799 35.0495 24.8778 34.813C24.9566 34.5766 24.959 34.3213 24.8847 34.0834C24.8104 33.8455 24.6631 33.637 24.4637 33.4875C20.26 30.3335 20.1911 23.8141 20.1911 23.75ZM14.1669 20.1839C15.1173 20.1944 16.0272 20.5709 16.7071 21.2351C17.387 21.8993 17.7846 22.8001 17.8173 23.75C17.8173 23.7951 17.8197 23.997 17.8375 24.3069L10.8312 21.1909C11.2927 20.8104 11.8253 20.5254 12.3979 20.3525C12.9706 20.1796 13.5719 20.1223 14.1669 20.1839ZM18.3469 33.25C17.3977 32.2835 16.7927 31.0317 16.625 29.6875H14.25C14.3351 30.9513 14.7299 32.1748 15.3995 33.25H12.7597C12.2714 31.7089 11.9742 30.1136 11.875 28.5H9.50003C9.57661 30.1088 9.84165 31.703 10.2897 33.25H7.12503C7.16184 31.0698 7.4694 26.2533 9.26609 23.0933L18.2115 27.0714C18.6413 29.3031 19.5576 31.4127 20.8953 33.25H18.3469Z" fill="black"/>
</svg>
