<svg width="19" height="13" viewBox="0 0 19 13" fill="none" xmlns="http://www.w3.org/2000/svg">
<path d="M1.19416 12.6254C0.910823 12.6254 0.673156 12.5294 0.481156 12.3374C0.289156 12.1454 0.19349 11.908 0.194156 11.6254C0.194156 11.342 0.290156 11.1044 0.482156 10.9124C0.674156 10.7204 0.91149 10.6247 1.19416 10.6254H17.1942C17.4775 10.6254 17.7152 10.7214 17.9072 10.9134C18.0992 11.1054 18.1948 11.3427 18.1942 11.6254C18.1942 11.9087 18.0982 12.1464 17.9062 12.3384C17.7142 12.5304 17.4768 12.626 17.1942 12.6254H1.19416ZM1.19416 7.62537C0.910823 7.62537 0.673156 7.52937 0.481156 7.33737C0.289156 7.14537 0.19349 6.90804 0.194156 6.62537C0.194156 6.34204 0.290156 6.10437 0.482156 5.91237C0.674156 5.72037 0.91149 5.6247 1.19416 5.62537H17.1942C17.4775 5.62537 17.7152 5.72137 17.9072 5.91337C18.0992 6.10537 18.1948 6.3427 18.1942 6.62537C18.1942 6.9087 18.0982 7.14637 17.9062 7.33837C17.7142 7.53037 17.4768 7.62604 17.1942 7.62537H1.19416ZM1.19416 2.62537C0.910823 2.62537 0.673156 2.52937 0.481156 2.33737C0.289156 2.14537 0.19349 1.90804 0.194156 1.62537C0.194156 1.34204 0.290156 1.10437 0.482156 0.91237C0.674156 0.72037 0.91149 0.624703 1.19416 0.62537H17.1942C17.4775 0.62537 17.7152 0.72137 17.9072 0.91337C18.0992 1.10537 18.1948 1.3427 18.1942 1.62537C18.1942 1.9087 18.0982 2.14637 17.9062 2.33837C17.7142 2.53037 17.4768 2.62604 17.1942 2.62537H1.19416Z" fill="#262133"/>
</svg>
