<svg width="35" height="34" viewBox="0 0 35 34" fill="none" xmlns="http://www.w3.org/2000/svg">
<path d="M24.185 33.2508H17.5691V29.8582C17.5702 29.5445 17.5076 29.2338 17.3853 28.9448C17.263 28.6559 17.0834 28.3948 16.8574 28.1772C16.2881 27.6161 15.4598 27.3006 14.5885 27.3133C13.8134 27.3206 13.0657 27.601 12.477 28.1052C12.091 28.4466 11.6316 29.0374 11.6316 29.9176V33.2508H5.07217C3.97771 33.2496 2.92841 32.8143 2.1545 32.0404C1.3806 31.2665 0.945302 30.2172 0.944123 29.1227V22.5633H4.33666C5.01651 22.5633 5.67779 22.2723 6.19881 21.7468C6.48867 21.4547 6.7179 21.1081 6.87329 20.727C7.02869 20.3458 7.10719 19.9378 7.10428 19.5262C7.08201 17.9535 5.78764 16.6257 4.27729 16.6257H0.944123V9.99505C0.941982 9.45465 1.04962 8.91944 1.26051 8.42188C1.47139 7.92433 1.78114 7.47478 2.17096 7.10052C2.94947 6.34959 3.99054 5.93252 5.07217 5.93825H9.76576V4.86356C9.76576 4.21769 9.89441 3.57828 10.1442 2.98266C10.394 2.38704 10.7599 1.84714 11.2206 1.39446C11.6813 0.941782 12.2275 0.585399 12.8274 0.346108C13.4273 0.106818 14.0689 -0.0105856 14.7147 0.000749039C17.3487 0.0467647 19.4914 2.25552 19.4914 4.92368V5.93825H24.185C24.7213 5.93249 25.2533 6.03387 25.7499 6.23645C26.2465 6.43903 26.6977 6.73872 27.0769 7.11797C27.4561 7.49721 27.7558 7.94835 27.9584 8.44495C28.161 8.94155 28.2624 9.47359 28.2566 10.0099V14.7035H29.2705C31.9854 14.7035 34.1941 16.8558 34.1941 19.501C34.1941 22.2181 32.0128 24.4291 29.3313 24.4291H28.2566V29.1227C28.2566 31.399 26.4301 33.2508 24.185 33.2508Z" fill="#7F66A0"/>
</svg>
