<svg width="18" height="19" viewBox="0 0 18 19" fill="none" xmlns="http://www.w3.org/2000/svg">
<path d="M12.6942 11.8804H11.9042L11.6242 11.6104C12.638 10.4344 13.1953 8.93307 13.1942 7.38037C13.1942 6.0948 12.8129 4.83809 12.0987 3.76917C11.3845 2.70025 10.3693 1.86713 9.1816 1.37516C7.99388 0.883187 6.68694 0.754466 5.42607 1.00527C4.16519 1.25607 3.007 1.87514 2.09796 2.78418C1.18892 3.69322 0.569855 4.85141 0.319051 6.11229C0.0682475 7.37316 0.196969 8.6801 0.688939 9.86782C1.18091 11.0555 2.01403 12.0707 3.08295 12.7849C4.15187 13.4992 5.40858 13.8804 6.69416 13.8804C8.30416 13.8804 9.78415 13.2904 10.9242 12.3104L11.1942 12.5904V13.3804L16.1942 18.3704L17.6842 16.8804L12.6942 11.8804ZM6.69416 11.8804C4.20416 11.8804 2.19416 9.87037 2.19416 7.38037C2.19416 4.89037 4.20416 2.88037 6.69416 2.88037C9.18416 2.88037 11.1942 4.89037 11.1942 7.38037C11.1942 9.87037 9.18416 11.8804 6.69416 11.8804Z" fill="#B9B9B9"/>
</svg>
