<svg width="14" height="12" viewBox="0 0 14 12" fill="none" xmlns="http://www.w3.org/2000/svg">
<path d="M13.9733 1.99996C13.46 2.23329 12.9067 2.38663 12.3333 2.45996C12.92 2.10663 13.3733 1.54663 13.5867 0.873293C13.0333 1.20663 12.42 1.43996 11.7733 1.57329C11.2467 0.999959 10.5067 0.666626 9.66667 0.666626C8.10001 0.666626 6.82001 1.94663 6.82001 3.52663C6.82001 3.75329 6.84667 3.97329 6.89334 4.17996C4.52001 4.05996 2.40667 2.91996 1.00001 1.19329C0.753339 1.61329 0.613339 2.10663 0.613339 2.62663C0.613339 3.61996 1.11334 4.49996 1.88667 4.99996C1.41334 4.99996 0.973339 4.86663 0.586672 4.66663V4.68663C0.586672 6.07329 1.57334 7.23329 2.88001 7.49329C2.46049 7.6081 2.02007 7.62407 1.59334 7.53996C1.77441 8.10828 2.12903 8.60556 2.60735 8.96191C3.08567 9.31826 3.66364 9.51575 4.26001 9.52663C3.24909 10.3269 1.996 10.7595 0.706672 10.7533C0.480006 10.7533 0.253339 10.74 0.0266724 10.7133C1.29334 11.5266 2.80001 12 4.41334 12C9.66667 12 12.5533 7.63996 12.5533 3.85996C12.5533 3.73329 12.5533 3.61329 12.5467 3.48663C13.1067 3.08663 13.5867 2.57996 13.9733 1.99996Z" fill="black"/>
</svg>
