<svg width="14" height="10" viewBox="0 0 14 10" fill="none" xmlns="http://www.w3.org/2000/svg">
<path d="M5.66665 7.00004L9.12665 5.00004L5.66665 3.00004V7.00004ZM13.3733 1.78004C13.46 2.09337 13.52 2.51337 13.56 3.04671C13.6066 3.58004 13.6266 4.04004 13.6266 4.44004L13.6666 5.00004C13.6666 6.46004 13.56 7.53337 13.3733 8.22004C13.2066 8.82004 12.82 9.20671 12.22 9.37337C11.9066 9.46004 11.3333 9.52004 10.4533 9.56004C9.58665 9.60671 8.79331 9.62671 8.05998 9.62671L6.99998 9.66671C4.20665 9.66671 2.46665 9.56004 1.77998 9.37337C1.17998 9.20671 0.793313 8.82004 0.626646 8.22004C0.53998 7.90671 0.47998 7.48671 0.43998 6.95337C0.393313 6.42004 0.373313 5.96004 0.373313 5.56004L0.333313 5.00004C0.333313 3.54004 0.43998 2.46671 0.626646 1.78004C0.793313 1.18004 1.17998 0.793374 1.77998 0.626707C2.09331 0.540041 2.66665 0.480041 3.54665 0.440041C4.41331 0.393374 5.20665 0.373374 5.93998 0.373374L6.99998 0.333374C9.79331 0.333374 11.5333 0.440041 12.22 0.626707C12.82 0.793374 13.2066 1.18004 13.3733 1.78004Z" fill="black"/>
</svg>
