<svg width="15" height="25" viewBox="0 0 15 25" fill="none" xmlns="http://www.w3.org/2000/svg">
<path d="M3.21 0.64866L14.0533 11.4598C14.182 11.5885 14.2734 11.728 14.3275 11.8781C14.3815 12.0283 14.4081 12.1891 14.4073 12.3608C14.4073 12.5324 14.3807 12.6932 14.3275 12.8434C14.2743 12.9935 14.1829 13.133 14.0533 13.2617L3.21 24.105C2.90969 24.4053 2.5343 24.5555 2.08383 24.5555C1.63337 24.5555 1.24726 24.3946 0.925495 24.0728C0.603734 23.7511 0.442854 23.3757 0.442854 22.9467C0.442854 22.5177 0.603734 22.1423 0.925495 21.8205L10.3853 12.3607L0.925497 2.90098C0.625187 2.60067 0.475031 2.23044 0.475031 1.79027C0.475031 1.3501 0.635912 0.969563 0.957672 0.648659C1.27943 0.326899 1.65482 0.166018 2.08383 0.166018C2.51285 0.166018 2.88824 0.326899 3.21 0.64866Z" fill="#262133"/>
</svg>
