<svg width="12" height="20" viewBox="0 0 12 20" fill="none" xmlns="http://www.w3.org/2000/svg">
<path d="M3.06915 0.52534L11.4942 8.92534C11.5942 9.02534 11.6652 9.13367 11.7072 9.25034C11.7492 9.36701 11.7698 9.49201 11.7692 9.62534C11.7692 9.75867 11.7485 9.88367 11.7072 10.0003C11.6658 10.117 11.5948 10.2253 11.4942 10.3253L3.06915 18.7503C2.83582 18.9837 2.54415 19.1003 2.19415 19.1003C1.84415 19.1003 1.54415 18.9753 1.29415 18.7253C1.04415 18.4753 0.91915 18.1837 0.91915 17.8503C0.91915 17.517 1.04415 17.2253 1.29415 16.9753L8.64415 9.62534L1.29415 2.27534C1.06082 2.04201 0.944151 1.75434 0.944152 1.41234C0.944152 1.07034 1.06915 0.774673 1.31915 0.52534C1.56915 0.27534 1.86082 0.15034 2.19415 0.15034C2.52748 0.15034 2.81915 0.27534 3.06915 0.52534Z" fill="#A78AE4"/>
</svg>
