<svg width="12" height="20" viewBox="0 0 12 20" fill="none" xmlns="http://www.w3.org/2000/svg">
<path d="M2.87506 0.900005L11.3001 9.30001C11.4001 9.40001 11.4711 9.50834 11.5131 9.62501C11.5551 9.74167 11.5757 9.86667 11.5751 10C11.5751 10.1333 11.5544 10.2583 11.5131 10.375C11.4717 10.4917 11.4007 10.6 11.3001 10.7L2.87506 19.125C2.64172 19.3583 2.35006 19.475 2.00006 19.475C1.65006 19.475 1.35006 19.35 1.10006 19.1C0.850059 18.85 0.725059 18.5583 0.725059 18.225C0.725059 17.8917 0.850059 17.6 1.10006 17.35L8.45006 10L1.10006 2.65C0.866726 2.41667 0.75006 2.129 0.75006 1.78701C0.75006 1.44501 0.87506 1.14934 1.12506 0.900004C1.37506 0.650004 1.66673 0.525004 2.00006 0.525005C2.33339 0.525005 2.62506 0.650005 2.87506 0.900005Z" fill="#747474"/>
</svg>
