<svg width="29" height="29" viewBox="0 0 29 29" fill="none" xmlns="http://www.w3.org/2000/svg">
<path d="M0.333313 14.6254V25.7087C0.333313 27.4504 1.75831 28.8754 3.49998 28.8754H6.66665C8.40831 28.8754 9.83331 27.4504 9.83331 25.7087V19.3754C9.83331 17.6337 8.40831 16.2087 6.66665 16.2087H3.49998V14.6254C3.49998 8.49787 8.45581 3.54203 14.5833 3.54203C20.7108 3.54203 25.6666 8.49787 25.6666 14.6254V16.2087H22.5C20.7583 16.2087 19.3333 17.6337 19.3333 19.3754V25.7087C19.3333 27.4504 20.7583 28.8754 22.5 28.8754H25.6666C27.4083 28.8754 28.8333 27.4504 28.8333 25.7087V14.6254C28.8333 10.846 27.332 7.22149 24.6596 4.54909C21.9872 1.8767 18.3626 0.375366 14.5833 0.375366C10.804 0.375366 7.17943 1.8767 4.50704 4.54909C1.83465 7.22149 0.333313 10.846 0.333313 14.6254Z" fill="#7F66A0"/>
</svg>
