<svg width="14" height="14" viewBox="0 0 14 14" fill="none" xmlns="http://www.w3.org/2000/svg">
<path d="M7.00001 4.91724C5.85314 4.91724 4.9172 5.85317 4.9172 7.00005C4.9172 8.14692 5.85314 9.08286 7.00001 9.08286C8.14689 9.08286 9.08282 8.14692 9.08282 7.00005C9.08282 5.85317 8.14689 4.91724 7.00001 4.91724ZM13.2469 7.00005C13.2469 6.13755 13.2547 5.28286 13.2063 4.42192C13.1578 3.42192 12.9297 2.53442 12.1985 1.80317C11.4656 1.07036 10.5797 0.8438 9.5797 0.795362C8.7172 0.746925 7.86251 0.754737 7.00157 0.754737C6.13907 0.754737 5.28439 0.746925 4.42345 0.795362C3.42345 0.8438 2.53595 1.07192 1.8047 1.80317C1.07189 2.53599 0.845326 3.42192 0.796888 4.42192C0.748451 5.28442 0.756263 6.13911 0.756263 7.00005C0.756263 7.86099 0.748451 8.71724 0.796888 9.57817C0.845326 10.5782 1.07345 11.4657 1.8047 12.1969C2.53751 12.9297 3.42345 13.1563 4.42345 13.2047C5.28595 13.2532 6.14064 13.2454 7.00157 13.2454C7.86407 13.2454 8.71876 13.2532 9.5797 13.2047C10.5797 13.1563 11.4672 12.9282 12.1985 12.1969C12.9313 11.4641 13.1578 10.5782 13.2063 9.57817C13.2563 8.71724 13.2469 7.86255 13.2469 7.00005ZM7.00001 10.2047C5.22657 10.2047 3.79533 8.77349 3.79533 7.00005C3.79533 5.22661 5.22657 3.79536 7.00001 3.79536C8.77345 3.79536 10.2047 5.22661 10.2047 7.00005C10.2047 8.77349 8.77345 10.2047 7.00001 10.2047ZM10.3359 4.41255C9.92189 4.41255 9.58751 4.07817 9.58751 3.66411C9.58751 3.25005 9.92189 2.91567 10.3359 2.91567C10.75 2.91567 11.0844 3.25005 11.0844 3.66411C11.0845 3.76243 11.0652 3.85981 11.0277 3.95067C10.9901 4.04153 10.935 4.12409 10.8654 4.19361C10.7959 4.26314 10.7134 4.31826 10.6225 4.35583C10.5317 4.3934 10.4343 4.41267 10.3359 4.41255Z" fill="black"/>
</svg>
