<svg width="28" height="27" viewBox="0 0 28 27" fill="none" xmlns="http://www.w3.org/2000/svg">
<path d="M14.388 22.3708L7.8172 26.3291C7.52692 26.5139 7.22345 26.593 6.90678 26.5666C6.59012 26.5402 6.31303 26.4347 6.07553 26.25C5.83803 26.0653 5.65331 25.8341 5.52137 25.5565C5.38942 25.2789 5.36303 24.9691 5.4422 24.6271L7.18387 17.1458L1.36512 12.1187C1.10123 11.8812 0.936561 11.6105 0.871116 11.3065C0.805672 11.0025 0.8252 10.7059 0.9297 10.4166C1.03526 10.1264 1.19359 9.88886 1.4047 9.70414C1.61581 9.51942 1.90609 9.40067 2.27553 9.34789L9.9547 8.67497L12.9234 1.62914C13.0554 1.31247 13.2602 1.07497 13.5378 0.916638C13.8154 0.758305 14.0988 0.679138 14.388 0.679138C14.6783 0.679138 14.9617 0.758305 15.2383 0.916638C15.5148 1.07497 15.7196 1.31247 15.8526 1.62914L18.8214 8.67497L26.5005 9.34789C26.87 9.40067 27.1603 9.51942 27.3714 9.70414C27.5825 9.88886 27.7408 10.1264 27.8464 10.4166C27.9519 10.7069 27.972 11.0041 27.9065 11.3081C27.8411 11.6121 27.6759 11.8823 27.4109 12.1187L21.5922 17.1458L23.3339 24.6271C23.413 24.9701 23.3866 25.2804 23.2547 25.5581C23.1228 25.8357 22.938 26.0663 22.7005 26.25C22.463 26.4347 22.186 26.5402 21.8693 26.5666C21.5526 26.593 21.2491 26.5139 20.9589 26.3291L14.388 22.3708Z" fill="#7F66A0"/>
</svg>
